<?xml version="1.0" standalone="yes"?>
<svg xmlns="http://www.w3.org/2000/svg" width="159" height="141">
<path style="fill:#ffffff; stroke:none;" d="M0 0L0 141L159 141L159 0L0 0z"/>
<path style="fill:#00a2e8; stroke:none;" d="M65 2.43904C54.6413 4.05692 44.9463 8.04997 36 13.4498C28.4481 18.0081 21.7962 24.0182 16.4282 31C11.8106 37.0058 8.31508 43.7782 6.02855 51C-10.0393 101.749 41.2699 145.55 90 138.572C101.882 136.87 113.774 133.803 124 127.305C135.755 119.835 145.338 110.591 151.63 98C165.238 70.7665 156.02 37.7746 133.29 18.4591C115.412 3.26669 87.5838 -1.08821 65 2.43904z"/>
<path style="fill:#ff0000; stroke:none;" d="M33 21C37.1913 26.95 42.8561 31.867 48 37C50.3237 39.3188 52.835 42.5997 56 43.787C59.0801 44.9425 62.1891 42.9638 65 41.9151C69.0892 40.3896 73.6518 39.5427 78 39.1736C82.8748 38.7599 88.3326 39.8244 93 41.2091C95.7691 42.0307 99.0387 44.1214 102 43.787C105.293 43.4152 107.806 40.1748 110 37.9992C115.497 32.5495 122.699 27.0793 126 20C104.639 5.91234 78.3456 2.16066 54 10.3557C46.4767 12.8882 39.8856 17.1818 33 21z"/>
<path style="fill:#ffffff; stroke:none;" d="M107 47C110.18 51.6548 114.129 55.8069 116.482 61C122.325 73.896 116.014 85.5539 107 95C111.179 100.933 116.822 105.923 122 110.995C123.88 112.837 126.173 115.694 129 115.963C134.76 116.511 140.972 106.156 143.533 102C153.682 85.5298 156.364 64.9268 148.208 47C145.407 40.8452 142.016 35.1259 137.561 30.0154C135.735 27.9202 133.172 24.7418 130 25.4614C126.846 26.1768 124.171 29.8345 122 32L107 47M53 49C49.8577 44.5391 45.854 40.854 42 37C38.8742 33.8742 34.5033 27.4927 30.0039 26.4614C26.8739 25.7441 24.5377 28.9287 22.8079 31.0154C18.5751 36.1215 14.9489 41.8434 12.4529 48C5.27517 65.7048 7.33119 84.6112 16.8765 101C19.3696 105.28 24.5618 114.222 30.0008 114.94C32.4321 115.261 34.34 113.43 36 111.938C40.5146 107.879 46.2589 103.068 49.6235 98C53.2114 92.5951 45.079 86.0272 43.1188 81C38.6043 69.422 43.1231 56.2906 53 49z"/>
<path style="fill:#ff0000; stroke:none;" d="M74 44.4637C68.9178 45.3621 64.365 47.0105 60 49.7585C56.4001 52.0248 53.1197 54.5577 50.5579 58.0008C41.7328 69.8617 47.1189 85.5579 58.7153 93.2114C66.6708 98.462 77.7394 100.054 87 98.3843C91.805 97.5179 96.9328 96.0335 101.116 93.4468C104.227 91.5227 106.846 88.9718 108.946 85.9853C125.37 62.624 96.9054 40.415 74 44.4637z"/>
<path style="fill:#ffffff; stroke:none;" d="M35 120C56.181 134.015 81.7456 137.659 106 129.971C112.839 127.804 118.717 124.344 125 121C121.07 115.421 115.824 110.812 111 106C108.732 103.738 106.192 100.364 103 99.4066C100.313 98.6006 97.4679 100.278 95 101.135C90.8719 102.568 86.3696 103.625 82 103.91C76.6631 104.258 71.0607 103.129 66 101.48C63.2659 100.589 59.9673 98.4816 57 98.9823C53.7402 99.5323 51.2093 102.808 49 105.001C44.1675 109.798 38.9268 114.425 35 120z"/>
</svg>
